<?xml version="1.0" standalone="no"?>
<!DOCTYPE svg PUBLIC "-//W3C//DTD SVG 20010904//EN"
 "http://www.w3.org/TR/2001/REC-SVG-20010904/DTD/svg10.dtd">
<svg version="1.0" xmlns="http://www.w3.org/2000/svg"
 width="574.000000pt" height="574.000000pt" viewBox="0 0 574.000000 574.000000"
 preserveAspectRatio="xMidYMid meet">
<metadata>
Created by potrace 1.14, written by Peter Selinger 2001-2017
</metadata>
<g transform="translate(0.000000,574.000000) scale(0.100000,-0.100000)"
fill="#000000" stroke="none">
<path d="M2645 5614 c-601 -60 -1041 -225 -1495 -562 -152 -113 -428 -389
-543 -543 -297 -398 -468 -816 -543 -1325 -25 -167 -25 -561 0 -728 75 -511
245 -924 544 -1326 113 -152 390 -429 542 -542 350 -261 733 -433 1138 -512
129 -25 141 -26 555 -26 404 0 427 1 543 24 407 81 793 253 1134 507 162 120
434 391 553 551 161 215 304 476 391 711 375 1011 138 2146 -608 2915 -167
171 -283 269 -471 394 -452 301 -943 453 -1490 462 -115 2 -228 2 -250 0z
m-374 -1125 c99 -48 170 -118 218 -218 35 -73 36 -80 36 -187 0 -106 -1 -113
-36 -182 l-36 -73 191 -414 c105 -228 193 -415 196 -415 3 0 91 187 196 415
l191 414 -36 73 c-35 69 -36 76 -36 182 0 107 1 114 36 187 98 205 323 305
538 240 136 -41 251 -157 293 -294 26 -87 22 -214 -10 -297 -43 -109 -141
-208 -252 -252 -45 -18 -75 -22 -166 -23 -107 0 -112 1 -185 37 -41 20 -77 34
-80 30 -4 -4 -98 -204 -209 -445 l-201 -439 14 -36 c9 -21 175 -383 371 -806
196 -424 355 -770 353 -771 -1 0 -29 -13 -61 -28 -32 -16 -62 -25 -66 -20 -4
4 -159 340 -346 745 -186 406 -341 738 -344 738 -3 0 -158 -332 -344 -738
-187 -405 -342 -740 -346 -745 -5 -5 -106 32 -127 48 -2 1 157 347 353 771
196 423 362 785 371 806 l14 36 -201 439 c-111 241 -205 441 -209 445 -3 4
-39 -9 -79 -30 -64 -31 -85 -36 -162 -40 -112 -5 -200 19 -284 79 -293 210
-227 668 114 787 54 19 82 22 160 20 85 -3 103 -7 171 -39z"/>
<path d="M1955 4362 c-113 -56 -175 -153 -175 -277 0 -119 60 -217 165 -273
43 -23 62 -27 140 -27 81 0 95 3 144 30 175 97 215 326 82 478 -52 58 -124 90
-216 95 -72 3 -86 0 -140 -26z"/>
<path d="M3497 4376 c-252 -90 -280 -432 -46 -561 49 -27 63 -30 144 -30 74 0
97 4 133 23 69 37 117 87 147 153 23 53 27 71 23 138 -5 124 -62 209 -173 262
-68 33 -160 39 -228 15z"/>
</g>
</svg>
